<?xml version="1.0" encoding="UTF-8" standalone="no"?>
<svg width="70px" height="17px" viewBox="0 0 70 17" version="1.1" xmlns="http://www.w3.org/2000/svg" xmlns:xlink="http://www.w3.org/1999/xlink">
    <!-- Generator: Sketch 39.1 (31720) - http://www.bohemiancoding.com/sketch -->
    <title>Page 1</title>
    <desc>Created with Sketch.</desc>
    <defs>
        <polygon id="path-1" points="16.1203202 0.729818182 0.310331681 0.729818182 0.310331681 16.3634727 16.1203202 16.3634727 16.1203202 0.729818182"></polygon>
    </defs>
    <g id="Page-1" stroke="none" stroke-width="1" fill="none" fill-rule="evenodd">
        <g id="Desktop-HD-Copy-11" transform="translate(-44.000000, -28.000000)">
            <g id="Page-1" transform="translate(44.000000, 27.000000)">
                <path d="M52.3161662,12.4890382 C51.2294411,14.1548564 49.3657583,15.1497655 47.3328037,15.1497655 C44.0844773,15.1497655 41.4438368,12.5970382 41.4438368,9.45685636 C41.4438368,6.31831091 44.0844773,3.76394727 47.3328037,3.76394727 C49.3505238,3.76394727 51.205743,4.74740182 52.2958536,6.39358364 L52.4431201,6.61612909 L54.2932612,5.48376545 L54.1443019,5.25958364 C52.6496317,2.99812909 50.1037835,1.64649273 47.3328037,1.64649273 C42.8775692,1.64649273 39.2534594,5.14994727 39.2534594,9.45685636 C39.2534594,13.7637655 42.8775692,17.26722 47.3328037,17.26722 C50.1207106,17.26722 52.6750225,15.9041291 54.168,13.6214018 L54.3135738,13.39722 L52.4634327,12.2648564 L52.3161662,12.4890382 Z" id="Fill-1" fill="#231F1F"></path>
                <polygon id="Fill-3" fill="#231F1F" points="2.23438811 1.64960182 0 1.64960182 0 17.26542 10.8824857 17.26542 10.8824857 15.1021473 2.23438811 15.1021473"></polygon>
                <g id="Group-7" transform="translate(13.062143, 0.906693)">
                    <mask id="mask-2" fill="white">
                        <use xlink:href="#path-1"></use>
                    </mask>
                    <g id="Clip-6"></g>
                    <polygon id="Fill-5" fill="#231F1F" mask="url(#mask-2)" points="7.39097217 0.729654545 0.310331681 16.3634727 2.75630957 16.3634727 8.2187114 4.32638182 13.6777278 16.3634727 16.1203202 16.3634727 9.02105986 0.729654545"></polygon>
                </g>
                <polygon id="Fill-8" fill="#231F1F" points="38.8868166 1.64960182 26.7077087 1.64960182 26.7077087 3.81287455 31.6724514 3.81287455 31.6724514 17.26542 33.9034541 17.26542 33.9034541 3.81287455 38.8868166 3.81287455"></polygon>
                <polygon id="Fill-10" fill="#231F1F" points="67.1961754 8.37243818 58.5870103 8.37243818 58.5870103 1.64534727 56.3543149 1.64534727 56.3543149 17.2660745 58.5870103 17.2660745 58.5870103 10.5324382 67.1961754 10.5324382 67.1961754 17.2693473 69.4288708 17.2693473 69.4288708 1.64534727 67.1961754 1.64534727"></polygon>
            </g>
        </g>
    </g>
</svg>