<svg width="70" height="17" viewBox="0 0 70 17" xmlns="http://www.w3.org/2000/svg" xmlns:xlink="http://www.w3.org/1999/xlink"><title>Page 1</title><defs><path id="a" d="M16.12.73H.31v15.633h15.81V.73z"/></defs><g fill="none" fill-rule="evenodd"><path d="M52.316 11.489c-1.087 1.666-2.95 2.66-4.983 2.66-3.249 0-5.89-2.552-5.89-5.692 0-3.139 2.641-5.693 5.89-5.693 2.018 0 3.873.983 4.963 2.63l.147.222 1.85-1.132-.149-.224C52.65 1.998 50.104.646 47.333.646c-4.455 0-8.08 3.504-8.08 7.81 0 4.308 3.625 7.811 8.08 7.811 2.788 0 5.342-1.363 6.835-3.646l.146-.224-1.85-1.132-.148.224zM2.234.65H0v15.615h10.882v-2.163H2.234z" fill="#231F1F"/><g transform="translate(13.062 -.093)"><mask id="b" fill="#fff"><use xlink:href="#a"/></mask><path fill="#231F1F" mask="url(#b)" d="M7.391.73L.311 16.363h2.445L8.22 4.326l5.459 12.037h2.442L9.021.73z"/></g><path fill="#231F1F" d="M38.887.65h-12.18v2.163h4.965v13.452h2.231V2.813h4.984zm28.309 6.722h-8.609V.645h-2.233v15.621h2.233V9.532h8.61v6.737h2.232V.645h-2.233z"/></g></svg>